<?xml version="1.0" encoding="utf-8"?>
<!-- Generator: Adobe Illustrator 23.0.1, SVG Export Plug-In . SVG Version: 6.00 Build 0)  -->
<svg version="1.1" id="Layer_1" xmlns="http://www.w3.org/2000/svg" xmlns:xlink="http://www.w3.org/1999/xlink" x="0px" y="0px"
	 viewBox="0 0 132.25 291.59" style="enable-background:new 0 0 132.25 291.59;" xml:space="preserve">
<style type="text/css">
	.st0{fill:#117EAE;}
	.st1{fill:#C95528;}
	.st2{fill:#DD6426;}
	.st3{fill:#1787C4;}
	.st4{fill:#CD4D27;}
	.st5{fill:none;stroke:#BA4226;stroke-width:2;stroke-miterlimit:10;}
	.st6{fill:#EE7842;}
</style>
<g>
	<polygon class="st0" points="120.5,0 80.25,0 45.5,156.6 85.74,156.6 	"/>
	<g>
		<path class="st1" d="M36.64,162.7v6.34h6v-6.34c0-2.14,0.87-4.08,2.27-5.49c-2.55,0.29-5.08,0.66-7.57,1.18
			C36.89,159.74,36.64,161.19,36.64,162.7z"/>
		<path class="st1" d="M89.61,162.7v13.72h6V162.7c0-2.95-0.94-5.68-2.52-7.93c-1.92,0.79-3.76,1.7-5.5,2.71
			C88.84,158.86,89.61,160.69,89.61,162.7z"/>
		<path class="st2" d="M81.81,148.9H50.44c-6.1,0-11.28,3.99-13.1,9.49c2.49-0.52,5.02-0.89,7.57-1.18
			c1.41-1.43,3.37-2.31,5.53-2.31h31.38c2.29,0,4.35,1,5.78,2.58c1.74-1.01,3.58-1.91,5.5-2.71
			C90.59,151.22,86.47,148.9,81.81,148.9z"/>
	</g>
	<polygon class="st3" points="11.09,0 51.33,0 86.09,156.6 45.85,156.6 	"/>
	<circle class="st2" cx="66.12" cy="225.47" r="66.12"/>
	<path class="st4" d="M66.12,276.59c-28.19,0-51.12-22.93-51.12-51.12c0-28.19,22.93-51.12,51.12-51.12
		c28.19,0,51.12,22.93,51.12,51.12C117.25,253.66,94.31,276.59,66.12,276.59z"/>
	<path class="st5" d="M66.12,276.59c-28.19,0-51.12-22.93-51.12-51.12c0-28.19,22.93-51.12,51.12-51.12
		c28.19,0,51.12,22.93,51.12,51.12C117.25,253.66,94.31,276.59,66.12,276.59z"/>
	<path class="st6" d="M67.39,187.63l10.26,20.79c0.17,0.34,0.5,0.58,0.88,0.64l22.94,3.33c0.95,0.14,1.33,1.31,0.64,1.98
		l-16.6,16.18c-0.27,0.27-0.4,0.65-0.33,1.03l3.92,22.85c0.16,0.95-0.83,1.67-1.69,1.23l-20.52-10.79c-0.34-0.18-0.74-0.18-1.08,0
		l-20.52,10.79c-0.85,0.45-1.85-0.28-1.69-1.23l3.92-22.85c0.06-0.38-0.06-0.76-0.33-1.03l-16.6-16.18
		c-0.69-0.67-0.31-1.84,0.64-1.98l22.94-3.33c0.38-0.06,0.71-0.29,0.88-0.64l10.26-20.79C65.73,186.77,66.96,186.77,67.39,187.63z"
		/>
</g>
</svg>
