<?xml version="1.0" encoding="utf-8"?>
<!-- Generator: Adobe Illustrator 23.0.1, SVG Export Plug-In . SVG Version: 6.00 Build 0)  -->
<svg version="1.1" id="Layer_1" xmlns="http://www.w3.org/2000/svg" xmlns:xlink="http://www.w3.org/1999/xlink" x="0px" y="0px"
	 viewBox="0 0 238.74 204.72" style="enable-background:new 0 0 238.74 204.72;" xml:space="preserve">
<style type="text/css">
	.st0{fill:#A8C654;}
	.st1{fill:#A0B646;}
	.st2{fill:#A0B64C;}
	.st3{fill:#8A9E3C;}
	.st4{fill:#B5CD59;}
	.st5{fill:#ABBB4D;}
	.st6{fill:#9CB341;}
</style>
<g>
	<g>
		<g>
			<path class="st0" d="M168.47,156.27c0,0,37.79-31.06,44.96-8.78C219.49,166.34,180.19,166.38,168.47,156.27z"/>
		</g>
		<g>
			<path class="st1" d="M168.47,156.74c-0.17,0-0.33-0.09-0.41-0.25c-0.12-0.23-0.03-0.51,0.2-0.62
				c11.55-6.01,35.45-5.97,36.46-5.96c0.26,0,0.46,0.21,0.46,0.46c0,0.25-0.21,0.46-0.46,0.46c-0.01,0-0.02,0-0.06,0
				c-1.33,0-24.89,0.09-35.97,5.86C168.62,156.72,168.54,156.74,168.47,156.74z"/>
		</g>
		<g>
			<path class="st0" d="M180.55,147.49c0,0,46.5-50.29,54-31.97S214.74,144.86,180.55,147.49z"/>
		</g>
		<g>
			<path class="st1" d="M182.98,145.39c-0.14,0-0.28-0.06-0.37-0.18c-0.15-0.2-0.11-0.49,0.09-0.65
				c7.48-5.66,19.81-11.44,26.49-14.38c4.15-1.83,8.36-3.55,11.84-4.85c5.17-1.93,5.45-1.74,5.67-1.59
				c0.21,0.14,0.27,0.43,0.13,0.64c-0.11,0.17-0.32,0.24-0.5,0.19c-1.98,0.11-30.41,11.14-43.07,20.71
				C183.18,145.36,183.08,145.39,182.98,145.39z"/>
		</g>
		<g>
			<path class="st2" d="M191.42,136.52c0,0,33.3-63.84,41.94-65.53C242,69.3,247.3,99.38,191.42,136.52z"/>
		</g>
		<g>
			<path class="st3" d="M191.42,136.99c-0.14,0-0.27-0.06-0.36-0.17c-0.16-0.2-0.13-0.49,0.07-0.65
				c30.71-24.6,37.79-48.9,37.86-49.15c0.07-0.25,0.33-0.39,0.57-0.32c0.25,0.07,0.39,0.32,0.32,0.57
				c-0.02,0.06-1.79,6.27-7.36,15.44c-5.13,8.45-14.65,21.23-30.8,34.18C191.62,136.95,191.52,136.99,191.42,136.99z"/>
		</g>
		<g>
			<path class="st4" d="M208.17,107.15c0,0,8.16-35.11,6.91-58.87c-1.25-23.77,15.47-18.78,16.2-8.08
				C232.02,50.9,237.37,65.54,208.17,107.15z"/>
		</g>
		<g>
			<path class="st5" d="M208.17,107.61c-0.08,0-0.16-0.02-0.23-0.06c-0.22-0.13-0.3-0.41-0.17-0.63
				c14.87-25.83,15.02-59.07,15.02-59.41c0-0.26,0.21-0.46,0.46-0.46h0c0.26,0,0.46,0.21,0.46,0.46c0,0.34-0.15,33.82-15.14,59.87
				C208.49,107.53,208.33,107.61,208.17,107.61z"/>
		</g>
		<g>
			<path class="st2" d="M209.12,44.59c0,0-23.59-32.18-15.33-40.77C202.05-4.77,215.08,24.64,209.12,44.59z"/>
		</g>
		<g>
			<path class="st3" d="M209.12,45.05c-0.23,0-0.44-0.18-0.46-0.42c-1.56-15.55-11.29-36.62-11.38-36.83
				c-0.11-0.23-0.01-0.51,0.22-0.61c0.23-0.11,0.51-0.01,0.61,0.22c0.1,0.21,9.89,21.42,11.47,37.13c0.03,0.25-0.16,0.48-0.41,0.51
				C209.15,45.05,209.14,45.05,209.12,45.05z"/>
		</g>
		<g>
			<path class="st0" d="M215.08,76.82c0,0-7.41-42.51-10.71-53.62s-0.33-24,6.28-19.37C217.26,8.45,225,61.4,215.08,76.82z"/>
		</g>
		<g>
			<path class="st1" d="M215.08,77.28c-0.01,0-0.02,0-0.03,0c-0.25-0.02-0.45-0.24-0.43-0.49c1.24-18.36-4.39-56.12-4.44-56.5
				c-0.04-0.25,0.14-0.49,0.39-0.53c0.25-0.04,0.49,0.14,0.53,0.39c0.06,0.38,5.7,38.24,4.45,56.7
				C215.52,77.09,215.32,77.28,215.08,77.28z"/>
		</g>
		<g>
			<path class="st4" d="M144.7,166.62c0.64,0.91,25.78,22.97,33.38,16.64c7.6-6.33-12.78-18.58-23.84-18.88L144.7,166.62z"/>
		</g>
		<g>
			<path class="st5" d="M172.72,178.63c-0.08,0-0.15-0.02-0.22-0.06c-0.13-0.07-13.22-7.35-22.09-12.95
				c-0.22-0.14-0.28-0.42-0.14-0.64c0.14-0.22,0.42-0.28,0.64-0.14c8.85,5.58,21.91,12.85,22.04,12.92c0.22,0.12,0.3,0.41,0.18,0.63
				C173.04,178.54,172.89,178.63,172.72,178.63z"/>
		</g>
		<g>
			<path class="st0" d="M153.41,163.73c0,0,36.06,29.48,48.36,15.38s-33.3-22.83-33.3-22.83L153.41,163.73z"/>
		</g>
		<g>
			<path class="st1" d="M192.47,173.39c-0.07,0-0.14-0.01-0.2-0.05c-0.24-0.11-23.83-11.4-30.7-13.27
				c-0.25-0.07-0.39-0.32-0.32-0.57c0.07-0.25,0.32-0.39,0.57-0.32c6.95,1.9,29.88,12.86,30.86,13.33c0.23,0.11,0.33,0.39,0.22,0.62
				C192.81,173.3,192.64,173.39,192.47,173.39z"/>
		</g>
		<g>
			<path class="st2" d="M113.72,170.05c0,0,23.99,40.25,43.89,32.7c19.9-7.55-27.09-33.15-27.09-33.15L113.72,170.05z"/>
		</g>
		<g>
			<path class="st3" d="M148.27,194.81c-0.06,0-0.12-0.01-0.18-0.04c-2-0.86-19.04-14.92-26.57-24.89c-0.15-0.2-0.11-0.49,0.09-0.65
				c0.2-0.15,0.49-0.11,0.65,0.09c7.76,10.28,24.6,23.91,26.2,24.6c0.23,0.1,0.34,0.37,0.24,0.61
				C148.62,194.7,148.45,194.81,148.27,194.81z"/>
		</g>
		<g>
			<path class="st0" d="M130.52,169.6c0,0,34.37,28.21,43.52,22.48c9.16-5.72-29.35-25.46-29.35-25.46L130.52,169.6z"/>
		</g>
		<g>
			<path class="st1" d="M166.29,187.11c-0.09,0-0.18-0.03-0.26-0.08c-0.23-0.16-23.26-15.79-28.13-18.4
				c-0.23-0.12-0.31-0.4-0.19-0.63c0.12-0.22,0.4-0.31,0.63-0.19c4.91,2.63,27.26,17.8,28.21,18.45c0.21,0.14,0.27,0.43,0.12,0.64
				C166.58,187.04,166.44,187.11,166.29,187.11z"/>
		</g>
		<g>
			<path class="st0" d="M212.95,88.82c-0.07,0.7-28.74-18.86-26.25-36.57c2.49-17.72,23.03-5.28,24.3,2.73
				C213.5,70.8,213.04,87.89,212.95,88.82z"/>
		</g>
		<g>
			<path class="st1" d="M213.04,85.84c-0.23,0-0.42-0.17-0.46-0.4c-2.39-16.6-11.54-30.7-11.63-30.84c-0.14-0.21-0.08-0.5,0.13-0.64
				c0.21-0.14,0.5-0.08,0.64,0.13c0.09,0.14,9.35,14.41,11.78,31.22c0.04,0.25-0.14,0.49-0.39,0.52
				C213.08,85.84,213.06,85.84,213.04,85.84z"/>
		</g>
		<g>
			<path class="st4" d="M209.49,49.09c1.82,7.68-18.4-7.57-34.37-22.16c-16.29-14.9-3.56-34.3,5.42-24.07
				C193.59,17.69,206.03,34.52,209.49,49.09z"/>
		</g>
		<g>
			<path class="st2" d="M157.61,163c0,0,0.46-28.83,10.86-38.43s29.44,9.78,10.17,24.51C167.06,157.93,157.61,163,157.61,163z"/>
		</g>
		<g>
			<path class="st3" d="M167.35,157.54c-0.15,0-0.31-0.08-0.39-0.22c-0.13-0.22-0.07-0.5,0.15-0.64c7.59-4.7,7.88-22,7.88-22.17
				c0-0.26,0.21-0.46,0.47-0.46c0.26,0,0.46,0.21,0.46,0.47c-0.01,0.73-0.3,17.99-8.32,22.95
				C167.51,157.52,167.43,157.54,167.35,157.54z"/>
		</g>
		<g>
			<path class="st0" d="M184.03,146.64c0,0-5.56-37.61,0-48.73c5.56-11.12,26-5.36,21.04,13.6
				C200.1,130.45,184.03,146.64,184.03,146.64z"/>
		</g>
		<g>
			<path class="st1" d="M183.83,145.69c-0.1,0-0.2-0.03-0.28-0.1c-0.2-0.16-0.24-0.45-0.09-0.65c8.4-10.98,8.54-37.52,8.54-37.79
				c0-0.26,0.21-0.46,0.46-0.46c0,0,0,0,0,0c0.26,0,0.46,0.21,0.46,0.46c0,1.1-0.14,27.13-8.73,38.35
				C184.11,145.62,183.97,145.69,183.83,145.69z"/>
		</g>
		<g>
			<path class="st4" d="M205.84,113.15c0,0-22.1-20.87-22.69-34.85c-1.04-24.77,29.12-6.87,29.12,12.58
				C212.27,98.44,205.84,113.15,205.84,113.15z"/>
		</g>
		<g>
			<path class="st0" d="M139.46,167.92c0,0,1.7-33.56,11.17-33.81c9.47-0.24,10.85,25.23,6.26,28.19
				C150.37,166.51,139.46,167.92,139.46,167.92z"/>
		</g>
		<g>
			<path class="st1" d="M149.45,165.69c-0.05,0-0.11-0.01-0.16-0.03c-0.24-0.09-0.36-0.36-0.27-0.6c2.53-6.73,1.2-22.37,1.18-22.53
				c-0.02-0.25,0.17-0.48,0.42-0.5c0.26-0.02,0.48,0.17,0.5,0.42c0.06,0.65,1.37,16.01-1.24,22.93
				C149.81,165.58,149.63,165.69,149.45,165.69z"/>
		</g>
		<g>
			<path class="st4" d="M116.11,169.78c0,0,2.25-31.43,11.52-31.67c9.27-0.24,14.22,29.54,14.22,29.54S124.49,171.91,116.11,169.78z
				"/>
		</g>
		<g>
			<path class="st5" d="M209.49,49.55c-0.13,0-0.26-0.05-0.35-0.16c-9.8-11.37-33.78-36.3-34.02-36.55
				c-0.18-0.18-0.17-0.48,0.01-0.65c0.18-0.18,0.48-0.17,0.65,0.01c0.24,0.25,24.23,25.2,34.05,36.59c0.17,0.19,0.15,0.49-0.05,0.65
				C209.7,49.52,209.59,49.55,209.49,49.55z"/>
		</g>
		<g>
			<path class="st5" d="M209.12,103.24c-0.01,0-0.02,0-0.03,0c-0.26-0.01-0.45-0.23-0.43-0.49c0.44-7.49-12.43-21.79-12.56-21.93
				c-0.17-0.19-0.16-0.48,0.03-0.65c0.19-0.17,0.48-0.16,0.65,0.03c0.54,0.6,13.26,14.73,12.8,22.61
				C209.57,103.05,209.36,103.24,209.12,103.24z"/>
		</g>
		<g>
			<path class="st5" d="M126.59,170.66c-0.09,0-0.19-0.03-0.27-0.09c-0.21-0.15-0.26-0.44-0.11-0.65c1.54-2.16,2.18-18.95,2.3-25.24
				c0-0.26,0.22-0.46,0.47-0.45c0.26,0,0.46,0.22,0.45,0.47c-0.04,2.34-0.48,22.97-2.47,25.76
				C126.88,170.59,126.74,170.66,126.59,170.66z"/>
		</g>
	</g>
	<g>
		<g>
			<path class="st0" d="M70.27,157.3c0,0-37.79-31.06-44.96-8.78C19.25,167.36,58.55,167.41,70.27,157.3z"/>
		</g>
		<g>
			<path class="st1" d="M70.27,157.76c-0.07,0-0.14-0.02-0.21-0.05c-11.34-5.9-35.79-5.85-36.03-5.86c0,0,0,0,0,0
				c-0.25,0-0.46-0.21-0.46-0.46c0-0.26,0.2-0.46,0.46-0.46c1.01-0.01,24.91-0.05,36.46,5.96c0.23,0.12,0.31,0.4,0.2,0.62
				C70.6,157.67,70.44,157.76,70.27,157.76z"/>
		</g>
		<g>
			<path class="st0" d="M58.2,148.51c0,0-46.5-50.29-54-31.97S24,145.88,58.2,148.51z"/>
		</g>
		<g>
			<path class="st1" d="M55.76,146.41c-0.1,0-0.2-0.03-0.28-0.09c-12.65-9.57-41.09-20.6-43.07-20.71c-0.19,0.05-0.39-0.02-0.5-0.19
				c-0.14-0.21-0.09-0.5,0.13-0.64c0.22-0.15,0.5-0.34,5.67,1.59c3.49,1.3,7.69,3.02,11.84,4.85c6.68,2.94,19,8.71,26.49,14.38
				c0.2,0.15,0.24,0.44,0.09,0.65C56.04,146.35,55.9,146.41,55.76,146.41z"/>
		</g>
		<g>
			<path class="st2" d="M47.33,137.55c0,0-33.3-63.84-41.94-65.53S-8.56,100.4,47.33,137.55z"/>
		</g>
		<g>
			<path class="st3" d="M47.33,138.01c-0.1,0-0.2-0.03-0.29-0.1c-16.16-12.95-25.67-25.73-30.8-34.18
				c-5.57-9.17-7.35-15.38-7.36-15.44c-0.07-0.25,0.07-0.5,0.32-0.57c0.25-0.07,0.5,0.07,0.57,0.32c0.02,0.06,1.77,6.17,7.29,15.25
				c5.09,8.37,14.53,21.05,30.57,33.9c0.2,0.16,0.23,0.45,0.07,0.65C47.6,137.95,47.46,138.01,47.33,138.01z"/>
		</g>
		<g>
			<path class="st4" d="M30.57,108.17c0,0-8.16-35.11-6.91-58.87c1.25-23.77-15.47-18.78-16.2-8.08S1.37,66.56,30.57,108.17z"/>
		</g>
		<g>
			<path class="st5" d="M30.57,108.64c-0.16,0-0.32-0.08-0.4-0.23C15.18,82.36,15.03,48.87,15.03,48.54c0-0.26,0.21-0.46,0.46-0.46
				h0c0.26,0,0.46,0.21,0.46,0.46c0,0.33,0.15,33.57,15.02,59.41c0.13,0.22,0.05,0.5-0.17,0.63
				C30.73,108.62,30.65,108.64,30.57,108.64z"/>
		</g>
		<g>
			<path class="st2" d="M29.62,45.62c0,0,23.59-32.18,15.33-40.77S23.66,25.67,29.62,45.62z"/>
		</g>
		<g>
			<path class="st3" d="M29.62,46.08c-0.02,0-0.03,0-0.05,0c-0.25-0.03-0.44-0.25-0.41-0.51C30.74,29.86,40.53,8.66,40.63,8.44
				c0.11-0.23,0.38-0.33,0.61-0.22c0.23,0.11,0.33,0.38,0.22,0.61c-0.1,0.21-9.83,21.28-11.38,36.83
				C30.06,45.9,29.86,46.08,29.62,46.08z"/>
		</g>
		<g>
			<path class="st0" d="M23.66,77.84c0,0,7.41-42.51,10.71-53.62s0.33-24-6.28-19.37S13.74,62.43,23.66,77.84z"/>
		</g>
		<g>
			<path class="st1" d="M23.66,78.3c-0.24,0-0.44-0.19-0.46-0.43c-1.25-18.46,4.39-56.32,4.45-56.7c0.04-0.25,0.27-0.43,0.53-0.39
				c0.25,0.04,0.43,0.27,0.39,0.53c-0.06,0.38-5.68,38.14-4.44,56.5c0.02,0.25-0.18,0.48-0.43,0.49
				C23.68,78.3,23.67,78.3,23.66,78.3z"/>
		</g>
		<g>
			<path class="st4" d="M94.05,167.65c-0.64,0.91-25.78,22.97-33.38,16.64c-7.6-6.33,12.78-18.58,23.84-18.88L94.05,167.65z"/>
		</g>
		<g>
			<path class="st5" d="M66.02,179.65c-0.16,0-0.32-0.09-0.4-0.24c-0.12-0.22-0.04-0.51,0.18-0.63c0.13-0.07,13.2-7.34,22.04-12.92
				c0.22-0.14,0.5-0.07,0.64,0.14c0.14,0.22,0.07,0.5-0.14,0.64c-8.87,5.6-21.96,12.88-22.09,12.95
				C66.17,179.63,66.1,179.65,66.02,179.65z"/>
		</g>
		<g>
			<path class="st0" d="M85.34,164.75c0,0-36.06,29.48-48.36,15.38s33.3-22.83,33.3-22.83L85.34,164.75z"/>
		</g>
		<g>
			<path class="st1" d="M46.27,174.42c-0.17,0-0.34-0.1-0.42-0.26c-0.11-0.23-0.01-0.51,0.22-0.62
				c0.97-0.47,23.91-11.43,30.86-13.33c0.25-0.07,0.5,0.08,0.57,0.32c0.07,0.25-0.08,0.5-0.32,0.57
				c-6.87,1.88-30.46,13.16-30.7,13.27C46.41,174.4,46.34,174.42,46.27,174.42z"/>
		</g>
		<g>
			<path class="st4" d="M125.02,171.07c0,0-23.99,40.25-43.89,32.7c-19.9-7.55,27.09-33.15,27.09-33.15L125.02,171.07z"/>
		</g>
		<g>
			<path class="st5" d="M90.47,195.83c-0.18,0-0.35-0.1-0.42-0.28c-0.1-0.23,0.01-0.51,0.24-0.61c1.6-0.69,18.43-14.32,26.2-24.6
				c0.15-0.2,0.44-0.24,0.65-0.09c0.2,0.15,0.24,0.44,0.09,0.65c-7.53,9.97-24.56,24.03-26.57,24.89
				C90.59,195.82,90.53,195.83,90.47,195.83z"/>
		</g>
		<g>
			<path class="st0" d="M108.23,170.62c0,0-34.37,28.21-43.52,22.48c-9.16-5.72,29.35-25.46,29.35-25.46L108.23,170.62z"/>
		</g>
		<g>
			<path class="st1" d="M72.45,188.13c-0.15,0-0.29-0.07-0.38-0.2c-0.14-0.21-0.09-0.5,0.12-0.64c0.95-0.64,23.3-15.82,28.21-18.45
				c0.23-0.12,0.51-0.04,0.63,0.19c0.12,0.23,0.04,0.51-0.19,0.63c-4.86,2.6-27.89,18.24-28.13,18.4
				C72.63,188.11,72.54,188.13,72.45,188.13z"/>
		</g>
		<g>
			<path class="st0" d="M25.8,89.84c0.07,0.7,28.74-18.86,26.25-36.57c-2.49-17.72-23.03-5.28-24.3,2.73
				C25.24,71.83,25.71,88.92,25.8,89.84z"/>
		</g>
		<g>
			<path class="st1" d="M25.71,86.86c-0.02,0-0.04,0-0.07,0c-0.25-0.04-0.43-0.27-0.39-0.52c2.42-16.81,11.68-31.08,11.78-31.22
				c0.14-0.21,0.43-0.27,0.64-0.13c0.21,0.14,0.27,0.43,0.13,0.64c-0.09,0.14-9.24,14.25-11.63,30.84
				C26.13,86.7,25.93,86.86,25.71,86.86z"/>
		</g>
		<g>
			<path class="st4" d="M29.26,50.11c-1.82,7.68,18.4-7.57,34.37-22.16c16.29-14.9,3.56-34.3-5.42-24.07
				C45.15,18.72,32.71,35.54,29.26,50.11z"/>
		</g>
		<g>
			<path class="st2" d="M81.13,164.02c0,0-0.46-28.83-10.86-38.43s-29.44,9.78-10.17,24.51C71.68,158.95,81.13,164.02,81.13,164.02z
				"/>
		</g>
		<g>
			<path class="st3" d="M71.4,158.56c-0.08,0-0.17-0.02-0.24-0.07c-8.03-4.96-8.31-22.22-8.32-22.95c0-0.26,0.2-0.46,0.46-0.47
				c0.26-0.01,0.46,0.2,0.47,0.46c0,0.17,0.29,17.48,7.88,22.17c0.22,0.13,0.28,0.42,0.15,0.64
				C71.7,158.49,71.55,158.56,71.4,158.56z"/>
		</g>
		<g>
			<path class="st0" d="M54.72,147.66c0,0,5.56-37.61,0-48.73s-26-5.36-21.04,13.6S54.72,147.66,54.72,147.66z"/>
		</g>
		<g>
			<path class="st1" d="M54.91,146.71c-0.14,0-0.28-0.06-0.37-0.18c-8.59-11.22-8.73-37.25-8.73-38.35c0-0.26,0.21-0.46,0.46-0.46
				c0,0,0,0,0,0c0.26,0,0.46,0.21,0.46,0.46c0,0.27,0.14,26.82,8.54,37.79c0.16,0.2,0.12,0.49-0.09,0.65
				C55.11,146.68,55.01,146.71,54.91,146.71z"/>
		</g>
		<g>
			<path class="st4" d="M32.91,114.17c0,0,22.1-20.87,22.69-34.85c1.04-24.77-29.12-6.87-29.12,12.58
				C26.48,99.47,32.91,114.17,32.91,114.17z"/>
		</g>
		<g>
			<path class="st0" d="M99.28,168.94c0,0-1.7-33.56-11.17-33.81s-10.85,25.23-6.26,28.19C88.37,167.53,99.28,168.94,99.28,168.94z"
				/>
		</g>
		<g>
			<path class="st1" d="M89.3,166.71c-0.19,0-0.36-0.11-0.43-0.3c-2.61-6.92-1.3-22.28-1.24-22.93c0.02-0.25,0.25-0.44,0.5-0.42
				c0.25,0.02,0.44,0.25,0.42,0.5c-0.01,0.16-1.35,15.8,1.18,22.53c0.09,0.24-0.03,0.51-0.27,0.6
				C89.41,166.71,89.35,166.71,89.3,166.71z"/>
		</g>
		<g>
			<path class="st2" d="M116.85,170.62c0,0,2.19-37.43-7.09-37.68s-10.48,35.99-10.48,35.99S108.47,172.76,116.85,170.62z"/>
		</g>
		<g>
			<path class="st5" d="M29.26,50.58c-0.11,0-0.21-0.04-0.3-0.11c-0.19-0.17-0.22-0.46-0.05-0.65
				c9.82-11.39,33.81-36.34,34.05-36.59c0.18-0.18,0.47-0.19,0.65-0.01c0.18,0.18,0.19,0.47,0.01,0.65
				c-0.24,0.25-24.22,25.18-34.02,36.55C29.52,50.52,29.39,50.58,29.26,50.58z"/>
		</g>
		<g>
			<path class="st5" d="M29.62,104.26c-0.24,0-0.45-0.19-0.46-0.44c-0.46-7.88,12.26-22.01,12.8-22.61c0.17-0.19,0.46-0.2,0.65-0.03
				c0.19,0.17,0.2,0.46,0.03,0.65c-0.13,0.14-13,14.44-12.56,21.93c0.01,0.26-0.18,0.47-0.43,0.49
				C29.64,104.26,29.63,104.26,29.62,104.26z"/>
		</g>
		<g>
			<path class="st3" d="M112.15,171.68c-0.14,0-0.29-0.07-0.38-0.19c-1.99-2.79-2.43-23.42-2.47-25.76c0-0.26,0.2-0.47,0.45-0.47
				c0.25,0,0.47,0.2,0.47,0.45c0.12,6.29,0.76,23.08,2.3,25.24c0.15,0.21,0.1,0.5-0.11,0.65
				C112.34,171.66,112.24,171.68,112.15,171.68z"/>
		</g>
	</g>
	<g>
		<path class="st6" d="M119.56,171.88c-25.43,0-49.33-9.9-67.31-27.88c-17.98-17.98-27.88-41.88-27.88-67.31
			c0-16.7,4.39-33.14,12.69-47.52c0.34-0.59,1.09-0.79,1.69-0.45c0.59,0.34,0.79,1.1,0.45,1.69c-8.09,14.01-12.36,30.02-12.36,46.29
			c0,51.13,41.6,92.72,92.72,92.72c51.13,0,92.72-41.6,92.72-92.72c0-18.74-5.56-36.79-16.08-52.2c-0.38-0.56-0.24-1.33,0.32-1.71
			c0.56-0.38,1.33-0.24,1.71,0.32c10.8,15.83,16.51,34.36,16.51,53.59c0,25.43-9.9,49.33-27.88,67.31
			C168.89,161.98,144.98,171.88,119.56,171.88z"/>
	</g>
</g>
</svg>
